<svg width="1500" height="318" viewBox="0 0 1500 318" fill="none" xmlns="http://www.w3.org/2000/svg">
<path d="M195.996 122.165L259.285 158.701L287.363 142.389L195.817 89.5349L105.366 142.1L133.622 158.412L195.996 122.165Z" fill="white"/>
<path d="M340.918 173.311L312.841 189.629L336.572 203.325L196.916 284.49L151.219 258.108L123.142 274.425L197.095 317.12L392.905 203.325L340.918 173.311Z" fill="white"/>
<path d="M56.3399 203.325L80.1805 189.473L51.9245 173.153L1.49881e-05 203.331L73.9536 246.026L102.03 229.707L56.3399 203.325Z" fill="white"/>
<path d="M318.952 71.0948L290.875 87.4064L336.572 113.789L259.285 158.701L196.911 194.954L133.622 158.412L105.366 142.1L56.3331 113.789L195.995 32.6301L241.692 59.0126L269.763 42.694L195.809 0L0 113.796L197.09 227.584L392.898 113.789L318.952 71.0948Z" fill="white"/>
<path d="M525.603 119.08H676.749V151.784H525.603V119.08ZM670.267 40.4132H709.453V231.04H670.267V40.4132ZM491.131 40.4132H530.317V231.04H491.131V40.4132Z" fill="white"/>
<path d="M874.309 182.426H911.432C909.861 192.443 905.638 201.38 898.763 209.237C892.085 217.094 882.951 223.281 871.363 227.799C859.774 232.317 845.631 234.576 828.936 234.576C810.276 234.576 793.776 231.629 779.437 225.737C765.099 219.648 753.903 210.907 745.849 199.514C737.796 188.122 733.769 174.373 733.769 158.266C733.769 142.159 737.698 128.41 745.555 117.018C753.412 105.429 764.313 96.5897 778.259 90.5007C792.401 84.4116 808.901 81.3671 827.757 81.3671C847.006 81.3671 863.015 84.4116 875.782 90.5007C888.549 96.5897 897.978 105.822 904.067 118.196C910.352 130.374 913.004 145.99 912.022 165.043H772.366C773.348 172.507 776.098 179.283 780.616 185.372C785.33 191.461 791.615 196.274 799.472 199.809C807.526 203.345 817.052 205.112 828.052 205.112C840.23 205.112 850.345 203.05 858.399 198.925C866.648 194.604 871.952 189.104 874.309 182.426ZM825.989 110.536C811.847 110.536 800.356 113.678 791.517 119.964C782.678 126.053 776.982 133.615 774.429 142.651H874.014C873.032 132.829 868.318 125.071 859.872 119.375C851.622 113.482 840.328 110.536 825.989 110.536Z" fill="white"/>
<path d="M1002.98 234.281C988.253 234.281 974.896 231.138 962.915 224.853C951.129 218.371 941.799 209.434 934.925 198.041C928.05 186.452 924.613 173.096 924.613 157.971C924.613 142.454 927.952 128.999 934.63 117.607C941.505 106.214 950.835 97.3754 962.62 91.0899C974.405 84.608 987.86 81.3671 1002.98 81.3671C1016.14 81.3671 1027.34 83.3313 1036.57 87.2597C1045.8 91.1881 1053.27 96.6879 1058.96 103.759C1064.66 110.634 1068.79 118.687 1071.34 127.919C1074.09 137.151 1075.46 147.168 1075.46 157.971C1075.46 166.614 1074.09 175.453 1071.34 184.488C1068.59 193.327 1064.37 201.577 1058.67 209.237C1052.97 216.701 1045.51 222.79 1036.28 227.504C1027.05 232.022 1015.95 234.281 1002.98 234.281ZM1015.36 204.818C1026.95 204.818 1036.97 202.854 1045.41 198.925C1053.86 194.997 1060.34 189.497 1064.86 182.426C1069.38 175.355 1071.63 167.203 1071.63 157.971C1071.63 147.954 1069.28 139.508 1064.56 132.633C1060.05 125.562 1053.56 120.16 1045.12 116.428C1036.87 112.696 1026.95 110.83 1015.36 110.83C999.056 110.83 986.387 115.152 977.352 123.794C968.316 132.437 963.799 143.829 963.799 157.971C963.799 167.4 965.959 175.649 970.281 182.72C974.602 189.595 980.593 194.997 988.253 198.925C996.11 202.854 1005.15 204.818 1015.36 204.818ZM1071.63 25.6816H1109.94V231.04H1074.29C1073.7 226.522 1073.11 220.728 1072.52 213.657C1071.93 206.389 1071.63 199.613 1071.63 193.327V25.6816Z" fill="white"/>
<path d="M1215.45 208.648C1199.54 208.648 1185.49 206.291 1173.32 201.577C1161.33 196.666 1152 189.497 1145.33 180.069C1138.65 170.641 1135.31 159.248 1135.31 145.891C1135.31 132.731 1138.55 121.339 1145.03 111.714C1151.51 102.09 1160.75 94.6255 1172.73 89.3221C1184.91 84.0188 1199.15 81.3671 1215.45 81.3671C1219.97 81.3671 1224.29 81.6617 1228.41 82.251C1232.73 82.8402 1236.96 83.6259 1241.08 84.608L1315.03 84.9027V113.777C1305.02 113.973 1294.8 112.794 1284.39 110.241C1274.18 107.491 1265.14 104.545 1257.29 101.402L1256.4 99.3396C1263.08 102.482 1269.37 106.411 1275.26 111.125C1281.15 115.643 1285.87 120.946 1289.4 127.035C1293.13 132.928 1295 139.802 1295 147.659C1295 160.427 1291.76 171.426 1285.28 180.658C1278.79 189.693 1269.56 196.666 1257.58 201.577C1245.8 206.291 1231.75 208.648 1215.45 208.648ZM1264.65 291.44V284.368C1264.65 275.333 1261.71 269.048 1255.81 265.512C1250.12 261.976 1242.26 260.209 1232.24 260.209H1186.57C1177.74 260.209 1170.27 259.521 1164.18 258.146C1158.29 256.771 1153.58 254.807 1150.04 252.254C1146.51 249.7 1143.95 246.656 1142.38 243.12C1140.81 239.781 1140.02 236.147 1140.02 232.219C1140.02 224.362 1142.58 218.469 1147.68 214.541C1152.79 210.416 1159.67 207.666 1168.31 206.291C1176.95 204.916 1186.48 204.621 1196.89 205.407L1215.45 208.648C1203.07 209.041 1193.84 210.121 1187.75 211.889C1181.86 213.46 1178.91 216.701 1178.91 221.612C1178.91 224.558 1180.09 226.915 1182.45 228.683C1184.81 230.254 1188.15 231.04 1192.47 231.04H1240.49C1253.65 231.04 1264.85 232.415 1274.08 235.165C1283.51 238.111 1290.68 242.924 1295.59 249.602C1300.5 256.477 1302.95 265.807 1302.95 277.592V291.44H1264.65ZM1215.45 180.953C1223.89 180.953 1231.26 179.578 1237.55 176.828C1244.03 174.078 1249.04 170.149 1252.57 165.043C1256.11 159.739 1257.88 153.454 1257.88 146.186C1257.88 138.722 1256.11 132.338 1252.57 127.035C1249.04 121.732 1244.13 117.705 1237.84 114.955C1231.56 112.009 1224.09 110.536 1215.45 110.536C1207 110.536 1199.54 112.009 1193.06 114.955C1186.57 117.705 1181.57 121.732 1178.03 127.035C1174.49 132.338 1172.73 138.722 1172.73 146.186C1172.73 153.454 1174.49 159.739 1178.03 165.043C1181.57 170.149 1186.48 174.078 1192.76 176.828C1199.24 179.578 1206.81 180.953 1215.45 180.953Z" fill="white"/>
<path d="M1462.09 182.426H1499.21C1497.64 192.443 1493.42 201.38 1486.54 209.237C1479.86 217.094 1470.73 223.281 1459.14 227.799C1447.55 232.317 1433.41 234.576 1416.71 234.576C1398.05 234.576 1381.56 231.629 1367.22 225.737C1352.88 219.648 1341.68 210.907 1333.63 199.514C1325.58 188.122 1321.55 174.373 1321.55 158.266C1321.55 142.159 1325.48 128.41 1333.33 117.018C1341.19 105.429 1352.09 96.5897 1366.04 90.5007C1380.18 84.4116 1396.68 81.3671 1415.54 81.3671C1434.79 81.3671 1450.79 84.4116 1463.56 90.5007C1476.33 96.5897 1485.76 105.822 1491.85 118.196C1498.13 130.374 1500.78 145.99 1499.8 165.043H1360.15C1361.13 172.507 1363.88 179.283 1368.4 185.372C1373.11 191.461 1379.39 196.274 1387.25 199.809C1395.3 203.345 1404.83 205.112 1415.83 205.112C1428.01 205.112 1438.12 203.05 1446.18 198.925C1454.43 194.604 1459.73 189.104 1462.09 182.426ZM1413.77 110.536C1399.63 110.536 1388.14 113.678 1379.3 119.964C1370.46 126.053 1364.76 133.615 1362.21 142.651H1461.79C1460.81 132.829 1456.1 125.071 1447.65 119.375C1439.4 113.482 1428.11 110.536 1413.77 110.536Z" fill="white"/>
</svg>
